<svg width="100" height="54" viewbox="0 0 100 54" xmlns="http://www.w3.org/2000/svg">
    <rect x="30" y="0" width="40" height="52" fill="rgb(230, 230, 230)"/>
    <g fill="black" font-family="Arial" font-size="1.5px" transform="rotate(-10, 38, 15)">
        <text x="35" y="5">MARK TUCKER</text>
        <text x="36" y="7">R.TIM MILLER</text>
        <text x="35" y="9">LINDA KENNEDY</text>
        <text x="35" y="11">SUSAN CARMAN</text>
    </g>
    <g fill="black" font-family="Arial" font-size="2px" font="bold"
        transform="rotate(13, 55, 15)">
        <text x="51" y="5">MARK TUCKER</text>
        <text x="52" y="7">R.TIM MILLER</text>
        <text x="51" y="9">LINDA KENNEDY</text>
        <text x="51" y="11">SUSAN CARMAN</text>
    </g>
    <g fill="white" font-size="2px" font="bold" font-family="Arial" transform="rotate(-60, 36, 15)">
        <text x="32" y="15">APRIL 17</text>
    </g>
    <g fill="white" font-size="2px" font="bold" font-family="Arial" transform="rotate(-10, 47, 35)">
        <text x="47" y="35">APRIL 17</text>
    </g>
    <g fill="black" font-size="4px" font="bold" font-family="Arial">
        <text x="40" y="27">NU-BODIES</text>
    </g>
    <g fill="black" font-size="1.5px" font="bold" font-family="courier" transform="rotate(-90, 33, 38)">
        <text x="33" y="38">DETROIT</text>
    </g>
    <g fill="black" font-size="2px" font="bold" font-family="courier" transform="rotate(-90, 35, 38)">
        <text x="35" y="38">FOCUS</text>
    </g>
    <g fill="black" font-size="1.5px" font="bold" font-family="Arial" transform="rotate(-30, 40, 38)">
        <text x="40" y="38">March 2</text>
    </g>
    <g fill="black" font-size="1px" font="italic" font-family="serif" transform="rotate(80, 50, 50)">
        <text x="35" y="52">Opening Reception: Friday</text>
    </g>
    <g fill="black" font-size="0.5px" font-family="serif" transform="rotate(-90, 65, 45)">
        <text x="60" y="45">HTML and CSS by Angela Jung</text>
    </g>
    <g fill="black" font-size="0.5px" font-family="serif" transform="rotate(-90, 66, 45)">
        <text x="61" y="45">Core 2 Interaction Lab</text>
    </g>
</svg>